<svg xmlns="http://www.w3.org/2000/svg" width="16" height="13" fill="none" viewBox="0 0 16 13">
    <path fill="#224229" d="M14.5.46h-13C.656.46 0 1.147 0 1.96v9c0 .844.656 1.5 1.5 1.5h13c.813 0 1.5-.656 1.5-1.5v-9c0-.813-.688-1.5-1.5-1.5zm0 1.5v1.281c-.719.594-1.844 1.469-4.219 3.344C9.75 6.991 8.72 7.991 8 7.96c-.75.031-1.781-.969-2.313-1.375-2.375-1.875-3.5-2.75-4.187-3.344V1.96h13zm-13 9V5.179c.688.562 1.719 1.375 3.25 2.593.688.532 1.906 1.72 3.25 1.688 1.313.031 2.5-1.156 3.219-1.688C12.75 6.554 13.78 5.742 14.5 5.18v5.781h-13z"/>
</svg>
