<svg xmlns="http://www.w3.org/2000/svg" width="16" height="17" fill="none" viewBox="0 0 16 17">
    <path fill="#224229" d="M13.5 10.73h-1c-.281 0-.5.25-.5.5v3.5H2v-10h4.5c.25 0 .5-.219.5-.5v-1c0-.25-.25-.5-.5-.5h-5c-.844 0-1.5.687-1.5 1.5v11c0 .844.656 1.5 1.5 1.5h11c.813 0 1.5-.656 1.5-1.5v-4c0-.25-.25-.5-.5-.5zm1.75-10h-4c-.688 0-1.031.812-.531 1.281l1.094 1.125-7.594 7.625c-.125.125-.25.344-.25.532 0 .156.125.406.25.53l.687.688c.125.125.375.25.532.25.187 0 .406-.125.53-.25l7.626-7.594 1.125 1.094C15.188 6.48 16 6.167 16 5.48v-4c0-.406-.344-.75-.75-.75z"/>
</svg>
