<svg xmlns="http://www.w3.org/2000/svg" width="218" height="157" fill="none" viewBox="0 0 218 157">
    <path fill="#224229" d="M17.46 0v62.1c0 2.52.42 4.23 1.26 5.13.84.9 2.28 1.35 4.32 1.35v1.89c-1.02-.06-2.58-.12-4.68-.18-2.1-.12-4.23-.18-6.39-.18-2.22 0-4.5.06-6.84.18-2.28.06-3.99.12-5.13.18v-1.89c2.22 0 3.78-.45 4.68-1.35.96-.9 1.44-2.61 1.44-5.13V10.8c0-2.7-.45-4.68-1.35-5.94C3.93 3.54 2.34 2.88 0 2.88V.99c1.92.18 3.78.27 5.58.27 2.28 0 4.41-.09 6.39-.27C13.95.75 15.78.42 17.46 0zm29.16 23.94v1.8c-1.8.36-3.54 1.05-5.22 2.07-1.68.96-3.33 2.31-4.95 4.05l-8.91 9.27.99-1.98L44.37 63.9c.84 1.2 1.62 2.22 2.34 3.06.78.78 1.74 1.32 2.88 1.62v1.89c-.78-.06-2.01-.12-3.69-.18-1.68-.12-3.36-.18-5.04-.18-2.04 0-4.14.06-6.3.18-2.1.06-3.69.12-4.77.18v-1.89c1.2 0 2.01-.27 2.43-.81.48-.6.42-1.35-.18-2.25l-9.36-15.75c-.84-1.32-1.65-2.16-2.43-2.52-.78-.42-1.83-.63-3.15-.63v-1.8c1.5-.12 2.73-.39 3.69-.81 1.02-.42 1.98-1.08 2.88-1.98l6.75-6.75c1.98-1.98 2.97-3.66 2.97-5.04.06-1.38-.57-2.43-1.89-3.15-1.26-.78-2.91-1.23-4.95-1.35v-1.8c1.62.06 3.42.15 5.4.27 1.98.06 3.66.09 5.04.09h3.42c1.26-.06 2.43-.12 3.51-.18 1.14-.06 2.04-.12 2.7-.18zM72.704 22.68c5.28 0 9.42 1.59 12.42 4.77 3 3.18 4.5 8.25 4.5 15.21h-30.33l-.09-1.71h19.98c.12-2.94-.06-5.64-.54-8.1-.48-2.52-1.26-4.53-2.34-6.03-1.02-1.5-2.37-2.25-4.05-2.25-2.28 0-4.26 1.35-5.94 4.05-1.68 2.64-2.73 6.99-3.15 13.05l.36.54c-.12.78-.21 1.62-.27 2.52v2.7c0 4.14.6 7.56 1.8 10.26 1.2 2.7 2.76 4.68 4.68 5.94 1.92 1.26 3.9 1.89 5.94 1.89 2.1 0 4.23-.51 6.39-1.53 2.22-1.08 4.17-3.18 5.85-6.3l1.71.72c-.66 2.1-1.77 4.2-3.33 6.3-1.5 2.04-3.45 3.72-5.85 5.04-2.4 1.32-5.22 1.98-8.46 1.98-4.08 0-7.68-.9-10.8-2.7-3.12-1.8-5.55-4.47-7.29-8.01-1.74-3.6-2.61-7.98-2.61-13.14 0-5.46.9-10.05 2.7-13.77 1.86-3.72 4.41-6.54 7.65-8.46 3.24-1.98 6.93-2.97 11.07-2.97zM112.384 0v62.1c0 2.52.45 4.23 1.35 5.13.96.9 2.55 1.35 4.77 1.35v1.89c-1.08-.06-2.73-.12-4.95-.18-2.16-.12-4.38-.18-6.66-.18-2.22 0-4.5.06-6.84.18-2.28.06-3.99.12-5.13.18v-1.89c2.22 0 3.78-.45 4.68-1.35.96-.9 1.44-2.61 1.44-5.13V10.8c0-2.7-.42-4.68-1.26-5.94-.84-1.32-2.46-1.98-4.86-1.98V.99c1.92.18 3.78.27 5.58.27 2.28 0 4.41-.09 6.39-.27 1.98-.24 3.81-.57 5.49-.99zM139.982 0v62.1c0 2.52.45 4.23 1.35 5.13.96.9 2.55 1.35 4.77 1.35v1.89c-1.08-.06-2.73-.12-4.95-.18-2.16-.12-4.38-.18-6.66-.18-2.22 0-4.5.06-6.84.18-2.28.06-3.99.12-5.13.18v-1.89c2.22 0 3.78-.45 4.68-1.35.96-.9 1.44-2.61 1.44-5.13V10.8c0-2.7-.42-4.68-1.26-5.94-.84-1.32-2.46-1.98-4.86-1.98V.99c1.92.18 3.78.27 5.58.27 2.28 0 4.41-.09 6.39-.27 1.98-.24 3.81-.57 5.49-.99zM193.508 23.94v1.89c-1.14.24-2.22.87-3.24 1.89-.96 1.02-1.89 2.82-2.79 5.4l-13.32 36.54-2.79 4.23-18.54-43.02c-1.14-2.28-2.22-3.69-3.24-4.23-1.02-.54-1.86-.81-2.52-.81v-1.89c1.74.18 3.54.33 5.4.45 1.92.06 3.84.09 5.76.09 2.22 0 4.35-.06 6.39-.18 2.1-.12 4.05-.24 5.85-.36v1.89c-1.38 0-2.61.09-3.69.27-1.08.18-1.8.69-2.16 1.53-.3.78-.06 2.16.72 4.14l11.25 27.45-.72.36 7.92-21.42c1.5-4.2 1.71-7.26.63-9.18s-3.09-2.97-6.03-3.15v-1.89c1.44.12 2.85.21 4.23.27 1.44.06 2.79.09 4.05.09 1.26 0 2.49-.03 3.69-.09 1.26-.06 2.31-.15 3.15-.27zm-19.35 45.72l-3.42 9.09c-1.08 3-2.37 5.13-3.87 6.39-.9.78-2.01 1.35-3.33 1.71-1.26.36-2.67.54-4.23.54-1.38 0-2.73-.24-4.05-.72-1.26-.48-2.34-1.2-3.24-2.16-.84-.96-1.26-2.22-1.26-3.78 0-1.68.57-3.03 1.71-4.05 1.14-1.02 2.7-1.53 4.68-1.53 1.74 0 3.15.42 4.23 1.26 1.14.9 1.71 2.22 1.71 3.96 0 1.14-.33 2.16-.99 3.06-.66.9-1.59 1.59-2.79 2.07.3.06.57.09.81.09.3.06.54.09.72.09 1.74 0 3.3-.57 4.68-1.71 1.38-1.14 2.49-2.94 3.33-5.4l3.24-8.91h2.07zM30.51 107.68c1.86 0 3.39.39 4.59 1.17 1.26.78 2.19 1.77 2.79 2.97.6 1.2.9 2.46.9 3.78 0 1.98-.6 3.63-1.8 4.95-1.14 1.32-2.67 1.98-4.59 1.98-1.8 0-3.27-.48-4.41-1.44-1.14-.96-1.71-2.28-1.71-3.96 0-1.5.36-2.76 1.08-3.78.78-1.02 1.65-1.83 2.61-2.43-.66-.36-1.41-.48-2.25-.36-1.92.18-3.6 1.02-5.04 2.52-1.44 1.44-2.58 3.18-3.42 5.22-.78 1.98-1.17 3.87-1.17 5.67v22.23c0 2.94.75 4.92 2.25 5.94 1.5.96 3.69 1.44 6.57 1.44v1.89c-1.38-.06-3.39-.12-6.03-.18-2.58-.12-5.28-.18-8.1-.18-2.34 0-4.68.06-7.02.18-2.28.06-3.99.12-5.13.18v-1.89c2.22 0 3.78-.45 4.68-1.35.96-.9 1.44-2.61 1.44-5.13v-28.35c0-2.7-.45-4.68-1.35-5.94-.84-1.32-2.43-1.98-4.77-1.98v-1.89c1.92.18 3.78.27 5.58.27 2.22 0 4.32-.09 6.3-.27 2.04-.24 3.9-.57 5.58-.99v9.36c.72-1.68 1.65-3.24 2.79-4.68 1.2-1.44 2.61-2.61 4.23-3.51 1.68-.96 3.48-1.44 5.4-1.44zM53.099 85.99c2.16 0 3.93.6 5.31 1.8 1.38 1.2 2.07 2.79 2.07 4.77 0 1.98-.69 3.57-2.07 4.77-1.38 1.2-3.15 1.8-5.31 1.8-2.16 0-3.93-.6-5.31-1.8-1.38-1.2-2.07-2.79-2.07-4.77 0-1.98.69-3.57 2.07-4.77 1.38-1.2 3.15-1.8 5.31-1.8zm6.3 21.96v39.15c0 2.52.45 4.23 1.35 5.13.96.9 2.55 1.35 4.77 1.35v1.89c-1.08-.06-2.73-.12-4.95-.18-2.22-.12-4.47-.18-6.75-.18-2.22 0-4.47.06-6.75.18-2.28.06-3.99.12-5.13.18v-1.89c2.22 0 3.78-.45 4.68-1.35.96-.9 1.44-2.61 1.44-5.13v-28.26c0-2.76-.45-4.77-1.35-6.03-.84-1.32-2.43-1.98-4.77-1.98v-1.89c1.92.18 3.78.27 5.58.27 2.22 0 4.32-.09 6.3-.27 2.04-.24 3.9-.57 5.58-.99zM112.108 108.94v1.89c-1.14.24-2.22.87-3.24 1.89-.96 1.02-1.89 2.82-2.79 5.4l-13.77 37.62c-.72-.06-1.44-.09-2.16-.09-.72 0-1.47.03-2.25.09l-16.2-39.87c-.9-2.28-1.83-3.69-2.79-4.23-.96-.54-1.77-.81-2.43-.81v-1.89c1.68.12 3.42.24 5.22.36 1.8.06 3.78.09 5.94.09 1.86 0 3.81-.03 5.85-.09 2.1-.12 4.05-.24 5.85-.36v1.89c-1.32 0-2.52.09-3.6.27-1.02.18-1.71.66-2.07 1.44-.36.72-.21 2.01.45 3.87l10.8 27.99-.81.99 8.19-22.23c1.5-4.2 1.71-7.26.63-9.18-1.02-1.92-3.03-2.97-6.03-3.15v-1.89c1.44.12 2.88.21 4.32.27 1.44.06 2.79.09 4.05.09 1.26 0 2.49-.03 3.69-.09 1.26-.06 2.31-.15 3.15-.27zM125.537 156.1c-3.96 0-6.84-1.02-8.64-3.06-1.8-2.04-2.7-4.62-2.7-7.74 0-2.52.6-4.59 1.8-6.21 1.2-1.68 2.73-3.03 4.59-4.05 1.92-1.02 3.93-1.89 6.03-2.61 2.1-.78 4.08-1.5 5.94-2.16 1.86-.72 3.39-1.5 4.59-2.34 1.2-.9 1.8-2.04 1.8-3.42v-6.57c0-1.92-.3-3.48-.9-4.68-.54-1.26-1.38-2.19-2.52-2.79-1.08-.66-2.46-.99-4.14-.99-1.26 0-2.58.18-3.96.54-1.38.36-2.52 1.05-3.42 2.07 1.56.42 2.76 1.2 3.6 2.34.9 1.14 1.35 2.52 1.35 4.14 0 1.86-.63 3.33-1.89 4.41-1.2 1.02-2.73 1.53-4.59 1.53-1.98 0-3.48-.63-4.5-1.89-1.02-1.26-1.53-2.73-1.53-4.41 0-1.68.42-3.06 1.26-4.14.84-1.14 2.01-2.16 3.51-3.06 1.5-1.02 3.42-1.83 5.76-2.43 2.34-.6 4.89-.9 7.65-.9 2.64 0 4.98.3 7.02.9 2.04.54 3.78 1.53 5.22 2.97 1.44 1.38 2.37 3.09 2.79 5.13.42 2.04.63 4.53.63 7.47v24.66c0 1.5.15 2.58.45 3.24.36.6.96.9 1.8.9.72 0 1.35-.18 1.89-.54.54-.36 1.08-.75 1.62-1.17l.99 1.53c-1.32 1.02-2.7 1.83-4.14 2.43-1.44.6-3.18.9-5.22.9-3.42 0-5.7-.75-6.84-2.25-1.14-1.56-1.74-3.33-1.8-5.31-1.62 2.7-3.57 4.65-5.85 5.85-2.28 1.14-4.83 1.71-7.65 1.71zm6.03-5.04c1.32 0 2.61-.36 3.87-1.08 1.26-.72 2.43-1.92 3.51-3.6V128.2c-.78 1.2-1.92 2.19-3.42 2.97-1.5.78-3.03 1.65-4.59 2.61-1.5.9-2.82 2.1-3.96 3.6-1.08 1.5-1.62 3.57-1.62 6.21 0 2.58.57 4.47 1.71 5.67 1.2 1.2 2.7 1.8 4.5 1.8zM176.814 107.68c2.52 0 4.68.36 6.48 1.08 1.8.72 3.12 1.35 3.96 1.89 2.04 1.5 3.27.54 3.69-2.88h1.98c-.12 1.74-.21 3.81-.27 6.21-.06 2.34-.09 5.49-.09 9.45h-1.98c-.3-2.22-.87-4.38-1.71-6.48-.84-2.1-2.07-3.84-3.69-5.22-1.62-1.44-3.75-2.16-6.39-2.16-1.86 0-3.42.54-4.68 1.62-1.2 1.08-1.8 2.61-1.8 4.59 0 1.8.54 3.39 1.62 4.77 1.08 1.32 2.46 2.58 4.14 3.78 1.74 1.14 3.54 2.4 5.4 3.78 3.18 2.22 5.85 4.47 8.01 6.75 2.22 2.22 3.33 5.13 3.33 8.73 0 2.76-.78 5.13-2.34 7.11-1.5 1.92-3.51 3.42-6.03 4.5-2.46 1.02-5.19 1.53-8.19 1.53-1.62 0-3.09-.15-4.41-.45-1.32-.3-2.49-.69-3.51-1.17-.78-.42-1.5-.81-2.16-1.17-.6-.36-1.23-.66-1.89-.9-.6-.3-1.14-.18-1.62.36-.42.54-.75 1.44-.99 2.7h-1.98c.12-1.92.21-4.26.27-7.02.06-2.76.09-6.42.09-10.98h1.98c.42 3.3 1.05 6.21 1.89 8.73.9 2.46 2.19 4.41 3.87 5.85 1.68 1.38 3.84 2.07 6.48 2.07 1.62 0 3.18-.54 4.68-1.62 1.5-1.08 2.25-2.91 2.25-5.49 0-2.64-.9-4.83-2.7-6.57-1.8-1.74-4.05-3.6-6.75-5.58-2.04-1.5-3.96-2.97-5.76-4.41-1.74-1.44-3.18-3.06-4.32-4.86-1.08-1.8-1.62-3.93-1.62-6.39 0-2.7.69-4.92 2.07-6.66 1.38-1.8 3.18-3.15 5.4-4.05 2.28-.96 4.71-1.44 7.29-1.44zM210.297 143.59c2.04 0 3.72.6 5.04 1.8 1.32 1.2 1.98 2.79 1.98 4.77 0 1.98-.66 3.57-1.98 4.77-1.32 1.2-3 1.8-5.04 1.8-2.1 0-3.81-.6-5.13-1.8-1.26-1.2-1.89-2.79-1.89-4.77 0-1.98.63-3.57 1.89-4.77 1.32-1.2 3.03-1.8 5.13-1.8z"/>
</svg>
